# xmcd
#
# Track frame offsets:
#	150
#	15667
#	30940
#	45342
#	66037
#	80265
#	94137
#	107470
#	122442
#	138615
#	154127
#
# Disc length: 2217 seconds
# Revision: 0
# Processed by: cddbd v1.5.2PL0 Copyright (c) Steve Scherf et al.
# Submitted via: dBpowerAMP V12.0
#
DISCID=7908a70b
DTITLE=Brad Jackson - Forever Begins Today
DYEAR=2000
DGENRE=Country
TTITLE0=Exits
TTITLE1=Forever Begins Today
TTITLE2=On The Prowl
TTITLE3=Almost As If You Cared
TTITLE4=Carmen's Cha Cha
TTITLE5=Somithing That Means Nothing
TTITLE6=All Night Dive
TTITLE7=Wish I'd Written You A Love Song
TTITLE8=Revolving Door
TTITLE9=Living Like That
TTITLE10=Ever Lasting Loving Thing
EXTD=
EXTT0=
EXTT1=
EXTT2=
EXTT3=
EXTT4=
EXTT5=
EXTT6=
EXTT7=
EXTT8=
EXTT9=
EXTT10=
PLAYORDER=
